<svg width="459.319" height="459.319" xmlns="http://www.w3.org/2000/svg">

 <g>
  <title>background</title>
  <rect fill="none" id="canvas_background" height="514" width="514" y="-1" x="-1"/>
 </g>
 <g>
  <title>Layer 1</title>
  <g id="svg_1">
   <path fill="#777777" id="svg_2" d="m95.924,365.674l312.874,0c0.958,0 1.886,-0.136 2.778,-0.349c0.071,0 0.13,0.012 0.201,0.012c6.679,0 12.105,-5.42 12.105,-12.104l0,-342.128c0.001,-6.682 -5.426,-12.105 -12.105,-12.105l-2.955,0l-293.538,0l-19.343,0c-32.22,0 -58.428,26.214 -58.428,58.425c0,0.432 0.085,0.842 0.127,1.259c-0.042,29.755 -0.411,303.166 -0.042,339.109c-0.023,0.703 -0.109,1.389 -0.109,2.099c0,30.973 24.252,56.329 54.757,58.245c0.612,0.094 1.212,0.183 1.847,0.183l317.683,0c6.679,0 12.105,-5.42 12.105,-12.105l0,-45.565c0,-6.68 -5.427,-12.105 -12.105,-12.105s-12.105,5.426 -12.105,12.105l0,33.461l-303.747,0c-18.395,0 -33.411,-14.605 -34.149,-32.817c0.018,-0.325 0.077,-0.632 0.071,-0.963c-0.012,-0.532 -0.03,-1.359 -0.042,-2.459c1.058,-17.924 15.935,-32.198 34.12,-32.198zm8.254,-308.249c0,-6.682 5.423,-12.105 12.105,-12.105s12.105,5.423 12.105,12.105l0,245.885c0,6.679 -5.423,12.105 -12.105,12.105s-12.105,-5.427 -12.105,-12.105l0,-245.885z"/>
  </g>
  <g id="svg_3"/>
  <g id="svg_4"/>
  <g id="svg_5"/>
  <g id="svg_6"/>
  <g id="svg_7"/>
  <g id="svg_8"/>
  <g id="svg_9"/>
  <g id="svg_10"/>
  <g id="svg_11"/>
  <g id="svg_12"/>
  <g id="svg_13"/>
  <g id="svg_14"/>
  <g id="svg_15"/>
  <g id="svg_16"/>
  <g id="svg_17"/>
 </g>
</svg>