<svg width="446.25" height="446.25" xmlns="http://www.w3.org/2000/svg">
 <g>
  <title>background</title>
  <rect x="-1" y="-1" width="448.25" height="448.25" id="canvas_background" fill="none"/>
 </g>

 <g>
  <title>Layer 1</title>
  <g id="svg_1">
   <g id="search">
    <path d="m318.75,280.5l-20.4,0l-7.649,-7.65c25.5,-28.05 40.8,-66.3 40.8,-107.1c-0.001,-91.8 -73.951,-165.75 -165.751,-165.75s-165.75,73.95 -165.75,165.75s73.95,165.75 165.75,165.75c40.8,0 79.05,-15.3 107.1,-40.8l7.65,7.649l0,20.4l127.5,127.501l38.25,-38.25l-127.5,-127.5zm-153,0c-63.75,0 -114.75,-51 -114.75,-114.75s51,-114.75 114.75,-114.75s114.75,51 114.75,114.75s-51,114.75 -114.75,114.75z" id="svg_2" fill="#ffffff"/>
   </g>
  </g>
  <g id="svg_3"/>
  <g id="svg_4"/>
  <g id="svg_5"/>
  <g id="svg_6"/>
  <g id="svg_7"/>
  <g id="svg_8"/>
  <g id="svg_9"/>
  <g id="svg_10"/>
  <g id="svg_11"/>
  <g id="svg_12"/>
  <g id="svg_13"/>
  <g id="svg_14"/>
  <g id="svg_15"/>
  <g id="svg_16"/>
  <g id="svg_17"/>
 </g>
</svg>