<svg width="533.333" height="533.333" xmlns="http://www.w3.org/2000/svg">

 <g>
  <title>background</title>
  <rect fill="none" id="canvas_background" height="402" width="582" y="-1" x="-1"/>
 </g>
 <g>
  <title>Layer 1</title>
  <g id="svg_1">
   <path fill="#777777" id="svg_2" d="m165.494,533.333c-35.545,-73.962 -16.616,-116.343 10.703,-156.272c29.917,-43.728 37.627,-87.013 37.627,-87.013s23.518,30.573 14.11,78.39c41.548,-46.25 49.389,-119.938 43.115,-148.159c93.914,65.63 134.051,207.737 79.96,313.054c287.695,-162.776 71.562,-406.339 33.934,-433.775c12.543,27.435 14.922,73.88 -10.416,96.42c-42.892,-162.645 -148.944,-195.978 -148.944,-195.978c12.543,83.877 -45.466,175.596 -101.404,244.13c-1.965,-33.446 -4.053,-56.525 -21.641,-88.531c-3.948,60.758 -50.381,110.285 -62.955,171.161c-17.032,82.44 12.758,142.802 125.911,206.573z"/>
  </g>
  <g id="svg_3"/>
  <g id="svg_4"/>
  <g id="svg_5"/>
  <g id="svg_6"/>
  <g id="svg_7"/>
  <g id="svg_8"/>
  <g id="svg_9"/>
  <g id="svg_10"/>
  <g id="svg_11"/>
  <g id="svg_12"/>
  <g id="svg_13"/>
  <g id="svg_14"/>
  <g id="svg_15"/>
  <g id="svg_16"/>
  <g id="svg_17"/>
  <polyline stroke-linecap="round" id="svg_18" points="342.16650390625,154.16650390625 342.16650390625,154.16650390625 " stroke-width="1.5" stroke="#000" fill="none"/>
 </g>
</svg>